<svg viewBox="314.5413744740533 221.24 392.6844319775596 397.93072" version="1.1" id="svg" xmlns="http://www.w3.org/2000/svg" style="max-height: 500px" width="392.6844319775596px" height="397.93072px" transform="rotate(0) scale(1, 1)"><path fill-rule="evenodd" fill="#60a5fa" stroke="none" d="M500.265 222.542 C 497.385 223.317,492.779 225.092,490.029 226.485 C 487.279 227.879,450.866 252.654,409.112 281.541 C 327.230 338.189,327.772 337.758,322.679 350.185 L 320.500 355.500 320.228 464.892 C 319.932 584.486,319.773 580.817,325.689 590.912 C 331.986 601.658,343.511 609.706,355.886 612.001 C 359.322 612.638,415.283 612.994,510.386 612.983 C 672.960 612.964,667.412 613.152,678.222 607.296 C 688.267 601.854,696.541 591.156,699.605 579.650 C 701.738 571.640,701.645 363.895,699.505 355.680 C 695.574 340.587,692.133 337.356,647.000 306.386 C 626.375 292.233,592.755 269.048,572.290 254.863 C 551.824 240.679,532.819 227.929,530.056 226.529 C 519.609 221.235,509.928 219.939,500.265 222.542 M518.101 241.148 C 521.711 242.366,525.410 244.838,581.000 283.177 C 600.525 296.643,629.100 316.340,644.500 326.949 C 675.292 348.160,677.202 349.682,680.342 355.500 L 682.500 359.500 682.772 464.917 C 683.076 582.541,683.361 577.274,676.278 585.114 C 674.275 587.331,670.806 590.125,668.568 591.322 L 664.500 593.500 512.560 593.766 C 342.395 594.063,353.516 594.516,345.984 586.984 C 337.908 578.908,338.535 588.343,338.211 470.000 C 338.009 395.935,338.250 363.159,339.020 360.000 C 341.107 351.436,343.510 349.186,370.179 330.826 C 384.105 321.238,417.624 298.117,444.665 279.447 C 471.705 260.776,496.199 244.262,499.094 242.750 C 504.895 239.720,512.077 239.114,518.101 241.148 M487.622 324.555 C 463.979 329.252,439.297 342.536,421.916 359.916 C 405.506 376.327,392.573 399.506,387.402 421.776 C 380.008 453.616,387.238 493.279,405.306 520.000 C 430.385 557.089,472.468 578.711,515.500 576.616 C 572.769 573.828,621.184 532.760,634.116 476.000 C 636.656 464.855,637.606 444.037,636.092 432.719 C 632.628 406.822,620.752 382.492,601.809 362.479 C 582.649 342.239,556.786 328.255,530.668 324.016 C 521.951 322.601,495.806 322.928,487.622 324.555 M531.137 344.028 C 579.228 353.828,614.855 395.010,617.676 444.061 C 618.654 461.062,614.245 481.677,606.246 497.500 C 598.830 512.168,583.183 530.114,570.500 538.497 C 549.612 552.303,530.289 557.681,505.000 556.727 C 490.146 556.167,481.339 554.281,468.379 548.885 C 461.416 545.987,443.892 535.252,442.533 533.054 C 442.240 532.579,455.967 518.791,473.039 502.415 L 504.078 472.639 509.412 472.886 C 522.277 473.482,532.924 463.241,532.978 450.218 C 533.079 425.953,500.356 418.690,490.263 440.736 C 487.794 446.129,487.515 452.253,489.454 458.500 C 489.962 460.136,484.585 465.773,459.886 489.500 C 443.282 505.450,429.346 518.640,428.917 518.810 C 428.488 518.981,425.820 515.831,422.988 511.810 C 397.318 475.362,396.615 428.258,421.186 390.961 C 437.280 366.532,464.162 348.592,492.334 343.481 C 503.499 341.455,519.627 341.682,531.137 344.028 M492.315 376.938 C 461.782 385.178,439.020 411.788,436.483 442.208 C 435.958 448.500,436.158 449.949,437.938 452.775 C 440.612 457.020,444.211 458.416,448.679 456.941 C 453.262 455.428,454.651 452.807,455.386 444.285 C 457.814 416.104,482.015 393.971,510.355 394.012 C 525.213 394.034,537.887 399.155,548.980 409.620 C 560.256 420.257,566.000 433.716,566.000 449.500 C 566.000 467.462,558.266 483.076,543.807 494.304 C 536.091 500.296,529.528 503.011,516.719 505.511 C 512.850 506.266,509.747 511.431,510.418 516.000 C 511.898 526.072,524.380 526.463,543.500 517.036 C 561.426 508.197,574.556 492.873,581.656 472.500 C 584.223 465.132,584.445 463.316,584.456 449.500 C 584.469 435.228,584.318 434.075,581.350 425.739 C 576.952 413.388,572.761 406.826,563.000 397.014 C 553.379 387.342,545.207 382.165,533.500 378.325 C 522.454 374.702,503.023 374.047,492.315 376.938 M60.000 750.500 L 60.000 861.000 516.000 861.000 L 972.000 861.000 972.000 750.500 L 972.000 640.000 516.000 640.000 L 60.000 640.000 60.000 750.500"/></svg>